<?xml version="1.0" standalone="no"?>
<!DOCTYPE svg PUBLIC "-//W3C//DTD SVG 20010904//EN"
 "http://www.w3.org/TR/2001/REC-SVG-20010904/DTD/svg10.dtd">
<svg version="1.0" xmlns="http://www.w3.org/2000/svg"
 width="499.000000pt" height="500.000000pt" viewBox="0 0 499.000000 500.000000"
 preserveAspectRatio="xMidYMid meet">

<g transform="translate(0.000000,500.000000) scale(0.100000,-0.100000)"
fill="#000000" stroke="none">
<path d="M2365 4803 c11 -3 23 -10 27 -17 4 -6 8 -84 8 -173 0 -145 -2 -162
-17 -166 -23 -7 120 -6 170 1 29 3 37 9 37 25 0 16 -3 17 -14 8 -8 -7 -36 -11
-63 -9 l-48 3 -3 78 -3 77 46 0 c38 0 47 -4 55 -22 8 -20 9 -19 9 12 l1 35
-57 0 -58 0 -3 68 -3 67 41 0 c23 0 50 -5 61 -10 16 -9 19 -7 19 10 0 19 -6
20 -112 19 -62 -1 -104 -4 -93 -6z"/>
<path d="M2203 4793 c-31 -4 -31 -5 -18 -31 17 -33 58 -207 53 -227 -3 -14
-40 9 -261 165 -33 23 -60 40 -62 38 -1 -2 6 -48 16 -103 46 -259 44 -246 29
-256 -11 -7 -6 -8 15 -3 42 9 46 13 36 32 -13 25 -55 221 -49 227 3 3 76 -42
162 -100 135 -91 156 -102 156 -84 0 12 -12 83 -26 157 -14 75 -24 149 -22
164 3 15 4 27 4 26 -1 0 -15 -3 -33 -5z"/>
<path d="M2743 4771 c-46 -21 -87 -75 -98 -129 -17 -81 26 -162 108 -203 44
-23 173 -36 196 -21 8 6 18 39 23 74 5 39 14 68 25 76 15 10 12 12 -19 12 -20
0 -42 2 -50 5 -10 4 -13 -10 -13 -57 -1 -87 -7 -98 -52 -98 -47 0 -92 26 -129
75 -23 31 -28 46 -28 99 0 71 30 136 71 155 57 26 168 4 195 -38 18 -29 28
-26 28 8 0 26 -5 30 -58 45 -77 21 -147 20 -199 -3z"/>
<path d="M3154 4712 c4 -7 -69 -251 -98 -322 -5 -12 14 -21 80 -43 47 -15 87
-27 88 -25 1 2 8 12 16 22 14 18 14 19 -4 9 -22 -12 -83 1 -105 22 -11 11 -10
24 8 84 12 39 27 71 34 71 7 0 30 -9 52 -20 30 -15 41 -17 47 -7 5 8 -7 17
-42 27 -27 9 -51 18 -55 21 -6 7 24 109 36 123 12 14 99 -23 100 -42 0 -11 3
-9 10 7 5 13 8 25 7 26 -3 2 -140 46 -167 53 -7 2 -11 0 -7 -6z"/>
<path d="M1612 4632 c-12 -4 -38 -20 -57 -35 -29 -23 -35 -34 -35 -66 0 -53
35 -86 120 -111 74 -22 100 -44 100 -83 0 -55 -70 -85 -118 -51 -21 15 -22 14
-12 -12 25 -65 0 -51 -236 124 -47 35 -88 61 -91 58 -3 -3 9 -88 27 -190 33
-183 33 -186 14 -207 -14 -16 -8 -14 22 7 32 23 38 31 29 41 -7 7 -16 33 -20
59 -7 51 -3 57 66 98 25 15 28 14 69 -17 24 -17 48 -36 55 -41 7 -5 27 1 53
18 23 14 52 26 64 26 35 0 87 36 104 74 34 70 -6 124 -117 157 -78 23 -99 39
-99 75 0 43 77 72 109 42 11 -11 13 -10 7 5 -3 10 -6 23 -6 28 0 10 -14 10
-48 1z m-230 -301 l49 -40 -41 -27 c-22 -15 -42 -25 -44 -23 -11 11 -32 129
-24 129 6 0 32 -18 60 -39z"/>
<path d="M3453 4596 c0 -24 -135 -287 -151 -293 -10 -5 -5 -11 19 -24 37 -20
53 -24 45 -11 -3 5 8 36 24 70 28 60 30 62 55 50 26 -11 29 -19 40 -93 13 -85
24 -103 96 -155 38 -28 69 -45 69 -38 0 15 162 259 184 277 15 13 13 16 -14
32 -37 23 -37 23 -42 1 -9 -33 -168 -262 -182 -262 -22 0 -33 21 -55 100 -29
104 -28 117 12 134 40 16 77 60 77 91 0 35 -38 74 -103 106 -69 33 -74 34 -74
15z m99 -56 c25 -26 29 -36 24 -62 -15 -73 -60 -106 -111 -81 -16 9 -31 17
-33 18 -6 5 73 155 81 155 5 0 22 -14 39 -30z"/>
<path d="M1044 4280 c-56 -48 -109 -92 -119 -97 -12 -7 -15 -16 -10 -33 7 -22
7 -22 25 8 17 27 78 79 84 71 1 -2 46 -56 99 -120 53 -64 97 -124 97 -133 0
-14 6 -12 33 9 l32 26 -50 52 c-28 29 -78 87 -113 129 l-62 77 35 28 c19 15
44 30 55 33 18 4 19 7 8 22 -12 15 -23 8 -114 -72z"/>
<path d="M2280 4229 c-114 -20 -125 -49 -75 -201 31 -97 35 -119 35 -217 0
-108 0 -109 35 -161 20 -29 33 -55 31 -58 -12 -12 -80 12 -111 39 -41 37 -55
80 -55 175 0 202 -72 334 -182 334 -70 0 -322 -120 -360 -171 -51 -69 -38
-133 44 -212 56 -54 66 -74 88 -182 11 -53 19 -66 71 -117 l58 -58 -45 0 c-88
0 -124 36 -175 171 -40 107 -96 166 -183 193 -100 32 -127 22 -227 -82 -131
-134 -170 -216 -139 -296 16 -42 67 -82 128 -100 103 -31 140 -52 161 -95 25
-48 61 -77 115 -93 60 -17 64 -25 16 -38 -64 -17 -100 -6 -150 46 -88 93 -199
139 -315 132 -125 -8 -148 -32 -209 -226 -26 -82 -71 -310 -63 -318 2 -2 24 5
50 16 25 11 65 23 90 26 39 6 53 2 100 -25 66 -37 95 -39 165 -6 68 32 100 31
163 -1 59 -32 119 -29 169 6 51 37 100 37 168 2 l58 -30 24 71 c30 88 112 219
182 294 95 99 232 179 371 216 110 28 319 30 422 3 249 -65 444 -238 545 -483
18 -43 36 -82 40 -86 4 -5 26 1 49 12 22 12 61 24 85 27 38 6 54 2 105 -25 75
-39 98 -39 164 -1 30 17 66 30 80 30 15 0 51 -13 80 -30 67 -38 88 -37 161 1
66 35 108 34 193 -2 24 -10 46 -19 47 -19 13 0 -38 222 -80 352 -42 128 -47
138 -82 160 -32 20 -50 23 -127 23 -81 -1 -97 -4 -156 -33 -37 -17 -88 -54
-115 -81 -74 -73 -94 -81 -168 -60 -43 12 -39 21 19 39 57 18 92 46 115 89 23
46 45 61 134 91 113 37 179 119 161 199 -12 56 -227 300 -267 302 -136 9 -229
-59 -286 -210 -52 -136 -90 -171 -184 -171 l-42 0 56 50 c60 54 72 75 88 165
11 66 46 123 98 163 63 48 90 135 54 178 -39 49 -313 184 -373 184 -16 0 -46
-9 -67 -19 -85 -44 -116 -109 -132 -276 -17 -185 -46 -241 -131 -252 l-44 -6
29 34 c47 55 56 89 56 204 0 90 4 118 30 195 46 139 38 187 -38 211 -47 15
-477 21 -552 8z"/>
<path d="M4060 4161 c-66 -45 -154 -106 -195 -136 -16 -12 -38 -25 -48 -28
-16 -6 -16 -8 5 -32 25 -29 30 -31 22 -11 -4 9 24 37 82 80 48 36 91 66 95 66
5 0 -1 -24 -12 -52 -46 -116 -70 -190 -64 -196 3 -3 56 11 118 31 62 21 118
37 125 37 16 0 -9 -37 -85 -127 l-53 -63 35 -46 c19 -25 35 -49 35 -54 0 -5
14 -2 31 7 16 8 47 17 67 20 35 4 38 2 65 -43 32 -54 30 -67 -21 -125 l-30
-34 23 -33 c22 -32 23 -32 28 -10 4 13 40 71 82 128 41 58 89 125 107 149 l31
44 -49 -7 c-27 -4 -105 -18 -174 -32 -134 -27 -173 -28 -178 -4 -1 9 35 63 80
120 94 119 140 180 136 180 -2 0 -70 -22 -153 -50 -82 -27 -151 -45 -153 -41
-1 5 7 33 19 62 29 74 89 239 86 238 -1 0 -27 -17 -57 -38z m341 -488 c-6 -10
-25 -36 -44 -57 l-33 -39 -22 37 c-12 20 -22 41 -22 45 0 9 70 28 108 30 19 1
21 -2 13 -16z"/>
<path d="M817 4072 c-31 -32 -33 -39 -13 -44 8 -2 67 -52 131 -112 84 -78 114
-113 110 -125 -3 -9 -3 -12 2 -6 4 6 22 25 38 44 17 19 25 31 18 27 -19 -10
-243 194 -254 232 -3 9 -14 3 -32 -16z"/>
<path d="M677 3912 c-61 -64 -55 -131 15 -165 34 -17 41 -17 103 -2 85 19 98
19 125 -3 50 -40 4 -129 -62 -120 -27 4 -27 4 -11 -14 9 -10 14 -20 11 -23 -3
-3 -36 -12 -74 -20 -118 -24 -117 -24 -126 11 -12 48 -51 84 -91 84 -47 0 -69
-21 -117 -110 -23 -41 -36 -70 -30 -63 9 8 19 8 39 0 51 -23 241 -131 259
-147 17 -16 19 -15 41 23 13 21 18 36 11 32 -15 -9 -130 44 -130 60 0 31 28
47 98 55 69 9 132 32 132 48 0 4 20 29 45 55 26 28 47 60 50 81 9 47 -17 94
-63 113 -34 14 -44 14 -107 -1 -94 -22 -112 -21 -131 9 -15 23 -15 27 3 57 14
25 27 34 52 36 30 3 32 4 14 17 -24 19 -25 19 -56 -13z m-70 -322 c18 -11 35
-31 39 -45 8 -31 -13 -75 -34 -75 -25 0 -142 70 -142 85 0 21 49 55 79 55 14
0 41 -9 58 -20z"/>
<path d="M4611 3499 c-1 -17 -42 -37 -209 -105 -89 -36 -112 -41 -112 -22 0 6
-2 9 -5 6 -5 -4 21 -77 31 -87 2 -2 12 2 21 11 25 20 143 69 143 59 0 -5 -21
-51 -46 -102 -26 -52 -46 -103 -46 -114 0 -33 25 -112 29 -92 3 12 14 17 41
17 69 0 78 -7 92 -66 15 -63 7 -78 -60 -110 -28 -13 -38 -24 -34 -34 3 -8 9
-57 13 -109 8 -89 10 -96 40 -123 62 -56 127 -30 196 77 38 61 65 74 100 51
30 -20 34 -70 8 -98 -15 -17 -15 -18 12 -18 27 0 27 1 23 51 -3 28 -14 62 -25
77 -49 66 -118 49 -180 -45 -47 -71 -85 -93 -122 -72 -43 24 -42 106 1 127 22
10 21 11 -9 11 -22 1 -33 6 -33 16 0 7 70 65 155 126 97 71 151 115 143 120
-7 3 -71 14 -143 23 -189 24 -204 27 -209 34 -4 7 81 212 93 225 9 9 166 -57
193 -80 16 -15 16 -13 2 25 -12 29 -21 38 -34 35 -18 -5 -167 44 -175 57 -6 9
91 52 122 54 27 1 27 0 3 51 -10 22 -19 33 -19 24z m74 -461 c7 -6 5 -12 -5
-18 -8 -5 -34 -21 -57 -35 l-41 -25 -11 32 c-21 60 -17 65 47 60 31 -2 62 -9
67 -14z"/>
<path d="M339 3301 c-15 -42 -30 -85 -35 -95 -5 -14 -4 -17 4 -12 17 10 310
-95 323 -115 6 -11 69 140 69 165 0 8 -10 21 -22 27 -21 11 -22 11 -9 -5 11
-13 12 -24 2 -55 -17 -59 -31 -66 -93 -46 -90 30 -90 30 -73 73 9 20 22 42 30
48 12 9 11 13 -10 22 -23 11 -25 10 -25 -13 0 -19 -15 -66 -26 -84 -4 -5 -107
30 -118 40 -15 14 12 89 35 98 20 7 20 7 -3 18 -22 10 -24 7 -49 -66z"/>
<path d="M2793 3160 c-359 -93 -662 -368 -882 -798 -46 -91 -101 -215 -101
-229 0 0 27 25 61 57 128 123 279 164 420 115 l36 -13 6 119 c9 161 39 293 92
406 73 155 195 256 407 338 75 29 60 30 -39 5z"/>
<path d="M270 3101 c0 -5 -3 -16 -6 -25 -4 -10 -1 -16 7 -16 16 0 243 -149
237 -155 -8 -9 -245 -46 -265 -42 -18 3 -23 -2 -28 -27 -4 -17 -9 -40 -12 -51
-5 -17 -4 -18 10 -3 10 10 73 26 164 43 81 15 165 32 186 37 l38 9 -23 18
c-13 10 -66 47 -118 84 -52 37 -116 82 -142 102 -27 19 -48 31 -48 26z"/>
<path d="M2968 2995 c-73 -27 -234 -116 -301 -166 -107 -81 -224 -196 -247
-243 -16 -35 -23 -76 -31 -197 -6 -84 -8 -161 -6 -171 6 -22 12 -23 -60 7 -39
16 -85 25 -129 27 l-67 3 -28 -40 c-37 -54 -139 -260 -139 -282 0 -3 28 21 62
53 35 31 92 71 128 88 59 28 74 31 160 30 59 0 111 -6 136 -16 l41 -15 5 141
c7 168 31 273 90 391 80 159 195 273 373 367 72 39 77 46 13 23z"/>
<path d="M3130 2828 c-252 -111 -386 -209 -500 -363 -51 -70 -61 -115 -67
-313 -5 -155 -7 -172 -22 -166 -75 32 -184 64 -218 64 -40 0 -44 -3 -86 -62
-25 -35 -62 -94 -82 -132 l-38 -68 54 36 c144 95 318 111 448 40 24 -13 45
-24 46 -24 1 0 5 69 8 153 16 418 121 618 417 796 80 48 96 63 40 39z"/>
<path d="M196 2666 c-14 -51 -15 -51 127 -53 72 -1 153 -6 179 -11 46 -9 46
-9 52 21 3 16 6 37 6 46 0 13 -2 14 -9 2 -7 -11 -31 -13 -128 -7 -65 3 -141
10 -170 15 -47 7 -52 6 -57 -13z"/>
<path d="M854 2529 c-84 -44 -94 -55 -94 -106 0 -103 47 -411 68 -449 5 -9 26
2 72 38 110 86 241 138 349 138 20 0 63 -7 95 -15 129 -34 228 -98 391 -256
138 -134 195 -176 330 -242 166 -81 292 -110 485 -110 118 0 162 5 235 23 212
54 350 133 535 306 142 132 233 197 344 243 141 59 265 61 383 6 54 -24 134
-81 160 -113 7 -9 16 -12 20 -9 19 20 54 233 59 362 l6 140 -45 28 c-84 52
-102 52 -178 6 -76 -46 -92 -45 -173 4 -59 37 -93 38 -143 5 -81 -53 -117 -54
-188 -9 -56 36 -107 34 -170 -7 l-50 -33 -12 -86 c-55 -377 -312 -651 -678
-720 -94 -18 -235 -13 -335 12 -88 23 -232 94 -302 149 -159 127 -278 353
-304 578 -6 52 -11 61 -48 91 -76 63 -79 63 -160 23 -40 -20 -83 -36 -96 -36
-12 0 -45 14 -72 30 -59 37 -98 38 -160 5 -63 -33 -111 -32 -173 5 -63 37 -79
37 -151 -1z"/>
<path d="M4490 2514 c-25 -63 1 -137 55 -160 54 -22 94 -5 157 67 60 68 79 77
113 55 44 -29 29 -99 -25 -119 -8 -3 2 -6 22 -6 35 -1 38 1 44 35 10 54 -11
111 -47 130 -49 25 -86 10 -156 -62 -67 -70 -97 -80 -133 -44 -23 23 -26 68
-7 93 6 10 26 21 42 26 29 9 28 9 -13 10 -37 1 -44 -2 -52 -25z"/>
<path d="M183 2460 c4 -14 7 -31 7 -38 0 -9 5 -10 18 -3 13 7 201 31 244 31
12 0 -15 -33 -145 -179 l-108 -121 185 3 c181 2 186 3 186 23 0 30 -6 32 -53
23 -24 -4 -83 -11 -132 -15 l-89 -7 34 40 c19 22 77 88 128 147 51 60 92 110
89 112 -2 2 -79 0 -171 -6 -135 -9 -171 -8 -184 2 -13 11 -15 10 -9 -12z"/>
<path d="M4490 2330 c0 -10 -3 -25 -6 -34 -4 -11 0 -16 15 -16 11 0 39 -10 62
-22 l41 -21 -6 -55 c-4 -30 -9 -58 -11 -62 -3 -4 -34 -14 -70 -21 -57 -11 -65
-16 -65 -35 0 -12 -3 -30 -7 -39 -6 -16 -4 -16 18 -2 13 9 85 29 159 46 179
41 211 50 206 60 -3 4 -67 43 -142 87 -75 43 -149 91 -165 106 -25 22 -29 23
-29 8z m243 -181 c-9 -8 -116 -29 -122 -24 -2 2 0 25 3 50 l7 45 60 -31 c33
-18 56 -36 52 -40z"/>
<path d="M360 2020 c-52 -16 -102 -26 -111 -24 -14 4 -15 0 -6 -36 9 -32 13
-37 18 -22 6 14 36 27 121 51 62 17 123 31 135 31 55 0 93 -39 95 -96 1 -43
-19 -74 -60 -91 -59 -25 -234 -73 -244 -67 -8 5 -4 -19 13 -76 4 -15 8 -18 8
-8 1 22 19 31 116 57 115 31 153 50 175 86 25 40 25 88 1 140 -41 89 -103 103
-261 55z"/>
<path d="M4427 1974 c-3 -16 -9 -37 -12 -46 -5 -13 -2 -18 11 -18 9 0 41 -8
71 -17 87 -27 70 -66 -44 -103 -76 -24 -95 -38 -111 -80 -10 -25 -9 -25 67 13
42 20 90 40 106 43 27 5 32 2 48 -31 21 -44 73 -70 111 -55 33 12 52 42 79
127 22 65 22 70 6 66 -19 -5 -110 20 -237 64 -50 18 -76 33 -81 46 -7 18 -8
17 -14 -9z m234 -134 c60 -18 69 -24 69 -45 0 -65 -100 -86 -157 -33 -26 24
-27 35 -13 72 12 31 15 31 101 6z"/>
<path d="M3680 1846 c-118 -25 -291 -102 -475 -211 -343 -203 -630 -250 -972
-160 -126 33 -214 72 -364 161 -139 81 -257 138 -364 175 -59 20 -89 24 -190
24 -116 0 -123 -1 -187 -33 -37 -18 -92 -57 -123 -86 l-57 -53 31 -59 c33 -63
72 -119 152 -221 l51 -64 51 48 c66 62 153 114 242 144 60 20 89 24 195 23
139 -1 187 -11 345 -74 212 -84 381 -115 587 -108 164 6 310 39 458 103 47 21
105 44 130 52 66 21 198 43 255 43 139 -1 291 -65 377 -159 31 -32 59 -56 65
-52 38 26 213 298 213 332 0 31 -105 135 -162 159 -65 28 -168 35 -258 16z"/>
<path d="M1687 1340 c-91 -24 -165 -83 -223 -183 -34 -58 -34 -60 -17 -79 40
-44 330 -218 363 -218 6 0 10 6 10 13 0 25 37 79 90 132 125 126 371 205 637
205 179 0 359 -38 485 -101 77 -39 173 -130 200 -190 13 -27 27 -49 33 -49 34
1 338 189 359 222 24 40 -76 187 -159 231 -62 34 -227 29 -465 -12 -319 -56
-576 -55 -927 4 -168 29 -330 39 -386 25z"/>
<path d="M956 1125 l-27 -85 -86 0 -86 0 67 -52 c66 -51 67 -52 61 -90 -4 -21
-15 -61 -25 -88 -10 -28 -16 -50 -14 -50 3 0 33 23 67 50 34 28 66 50 72 50 6
0 38 -23 73 -50 34 -28 62 -47 62 -43 0 4 -11 43 -24 86 l-24 77 70 55 70 55
-85 0 -85 0 -16 48 c-9 26 -22 64 -29 84 l-13 37 -28 -84z"/>
<path d="M4038 1122 l-26 -77 -84 -5 -83 -5 60 -45 c32 -25 63 -48 68 -51 5
-4 -2 -41 -17 -85 -14 -44 -26 -83 -26 -87 0 -5 26 12 58 36 31 24 63 47 70
51 7 5 36 -11 74 -39 34 -26 64 -43 65 -38 2 5 -6 38 -17 72 -11 35 -20 69
-20 75 0 10 43 48 115 101 18 13 12 14 -67 15 l-86 0 -23 75 c-12 42 -25 78
-29 80 -3 2 -18 -31 -32 -73z"/>
<path d="M2382 1105 c-136 -53 -221 -160 -246 -311 l-7 -41 53 -11 c184 -40
456 -41 683 -1 l65 11 0 39 c0 50 -41 159 -77 204 -71 89 -182 135 -320 135
-68 -1 -102 -6 -151 -25z"/>
<path d="M1812 619 c0 -15 -12 -63 -25 -106 -52 -162 -42 -218 43 -260 52 -27
97 -29 144 -7 43 21 67 64 102 184 15 52 33 102 40 111 12 13 8 16 -26 26 -33
8 -38 8 -29 -3 8 -9 5 -32 -11 -86 -12 -40 -26 -91 -31 -113 -19 -75 -55 -114
-106 -115 -68 0 -103 36 -103 106 0 38 44 203 66 245 12 24 11 26 -25 35 -37
10 -38 10 -39 -17z"/>
<path d="M3062 567 c-6 -20 -23 -90 -38 -157 -16 -66 -31 -120 -35 -120 -3 0
-50 57 -105 126 -54 69 -100 121 -102 115 -2 -6 1 -81 7 -168 6 -86 11 -167
11 -180 0 -17 6 -23 21 -23 16 0 20 4 14 17 -9 24 -26 226 -19 232 3 3 9 0 13
-8 18 -28 156 -201 162 -201 3 0 20 61 38 136 19 75 37 132 41 127 10 -10 80
-202 80 -218 0 -9 10 -10 33 -6 17 4 31 10 29 14 -25 59 -46 112 -82 212 -24
66 -47 124 -51 129 -4 4 -12 -8 -17 -27z"/>
<path d="M2266 507 c-3 -17 -8 -90 -11 -160 -4 -70 -10 -141 -15 -157 -8 -28
-7 -30 18 -30 l27 0 -3 135 c-2 76 1 135 6 135 5 0 33 -28 63 -62 157 -185
203 -230 210 -211 3 10 10 81 14 157 4 76 11 151 15 166 7 25 5 28 -22 34 -43
9 -56 7 -35 -5 15 -9 17 -27 17 -139 0 -72 -4 -130 -8 -130 -5 0 -68 67 -140
150 -130 149 -131 149 -136 117z"/>
</g>
</svg>
